<?xml version="1.0" encoding="utf-8"?>
<!-- Generator: Adobe Illustrator 16.0.0, SVG Export Plug-In . SVG Version: 6.00 Build 0)  -->
<!DOCTYPE svg PUBLIC "-//W3C//DTD SVG 1.1//EN" "http://www.w3.org/Graphics/SVG/1.1/DTD/svg11.dtd">
<svg version="1.1" id="Layer_1" xmlns="http://www.w3.org/2000/svg" xmlns:xlink="http://www.w3.org/1999/xlink" x="0px" y="0px"
	 width="604px" height="200px" viewBox="0 0 604 200" enable-background="new 0 0 604 200" xml:space="preserve">
<path d="M41.999,85.538c15.574,0,24.536,7.656,24.536,21.229c0,14.269-8.961,22.534-24.536,22.534H30.95v17.14H15.462V85.538H41.999
	z M30.95,117.121h10.267c6.786,0,10.702-3.394,10.702-9.832c0-6.352-3.916-9.571-10.702-9.571H30.95V117.121z"/>
<path d="M145.44,133.651v12.79h-15.052V81.883h15.052v34.106l15.487-16.444h17.053l-17.227,18.01l17.75,28.886h-17.836
	l-10.18-18.097L145.44,133.651z"/>
<path d="M226.525,127.039H193.55c1.479,5.568,5.48,8.701,11.049,8.701c4.09,0,8.092-1.653,11.225-4.785l7.917,7.743
	c-4.785,5.221-11.833,8.266-20.446,8.266c-15.313,0-24.884-9.57-24.884-23.839c0-14.53,9.919-24.101,24.449-24.101
	C219.39,99.023,227.569,109.899,226.525,127.039z M212.083,118.948c0-5.743-3.654-9.484-9.049-9.484
	c-5.221,0-8.788,3.829-9.745,9.484H212.083z M194.942,94.238l9.223-14.617l13.573,4.785l-11.312,9.832H194.942z"/>
<path d="M282.205,91.628l-5.83,12.094c-6.438-3.741-14.529-6.352-19.489-6.352c-4.002,0-6.699,1.479-6.699,4.438
	c0,10.528,32.192,4.524,32.192,26.537c0,12.181-10.789,18.619-24.361,18.619c-10.18,0-20.621-3.828-27.842-9.745l6.003-11.92
	c6.265,5.481,15.661,9.136,22.013,9.136c4.872,0,7.917-1.827,7.917-5.307c0-10.789-32.191-4.351-32.191-25.928
	c0-11.224,9.657-18.358,24.274-18.358C266.978,84.841,275.94,87.539,282.205,91.628z"/>
<path d="M291.163,146.441V81.883h15.052v64.558H291.163z"/>
<path d="M381.383,146.441l-17.662-46.896h15.486l10.092,33.149l10.18-33.149h14.965l-17.662,46.896H381.383z"/>
<path d="M459.857,115.815v30.626h-14.705v-5.395c-3.045,4.002-8.004,6.09-14.355,6.09c-10.006,0-16.096-6.09-16.096-14.704
	c0-8.875,6.352-14.095,18.01-14.182h12.355v-0.696c0-4.611-3.045-7.396-9.137-7.396c-3.914,0-9.047,1.392-14.008,3.915l-4.262-9.918
	c7.309-3.393,13.92-5.308,21.75-5.308C452.287,98.849,459.77,105.201,459.857,115.815z M445.066,130.52v-4.176h-9.484
	c-4.523,0-6.785,1.566-6.785,5.046c0,3.393,2.436,5.568,6.611,5.568C440.107,136.958,444.109,134.348,445.066,130.52z"/>
<path d="M482.387,139.829c0,4.35-3.045,7.308-7.309,7.308c-4.262,0-7.221-2.958-7.221-7.308c0-4.263,2.959-7.222,7.221-7.222
	C479.342,132.607,482.387,135.566,482.387,139.829z"/>
<path d="M527.803,104.157l-5.133,9.745c-5.656-3.045-10.877-4.698-14.791-4.698c-2.697,0-4.611,1.044-4.611,3.219
	c0,6.438,24.709,3.306,24.621,19.663c0,9.658-8.439,14.965-19.75,14.965c-7.83,0-15.398-2.262-21.055-6.612l4.785-9.571
	c5.307,3.742,11.398,5.83,16.619,5.83c2.957,0,5.133-1.044,5.133-3.219c0-6.874-24.275-3.306-24.188-19.75
	c0-9.657,8.178-14.878,19.055-14.878C515.273,98.849,522.061,100.764,527.803,104.157z"/>
<path d="M551.813,133.651v12.79H536.76V81.883h15.053v34.106l15.486-16.444h17.053l-17.227,18.01l17.75,28.886h-17.836
	l-10.18-18.097L551.813,133.651z"/>
<g>
	<path fill="#4B4A4C" d="M86.643,122.833H74.849c0.414,12.486,10.681,22.482,23.285,22.482c12.605,0,22.872-9.996,23.286-22.482
		h-11.793c-0.403,5.986-5.394,10.718-11.492,10.718C92.037,133.551,87.046,128.82,86.643,122.833z M97.866,148.528
		c-14.781,0-26.765-11.984-26.765-26.766c0-14.781,11.983-26.765,26.765-26.765c14.782,0,26.765,11.983,26.765,26.765
		C124.631,136.544,112.648,148.528,97.866,148.528z M97.866,114.269c-4.139,0-7.494,3.355-7.494,7.494
		c0,4.139,3.355,7.494,7.494,7.494c4.139,0,7.494-3.355,7.494-7.494C105.36,117.624,102.005,114.269,97.866,114.269z"/>
</g>
<g>
	<polygon fill="#4B4A4C" points="287.136,162.489 291.269,167.32 295.605,166.82 297.542,161.19 	"/>
	<polygon fill="#4B4A4C" points="409.001,152.472 409.583,152.354 410.165,152.235 410.13,152.237 409.617,152.344 	"/>
	<polygon fill="#4B4A4C" points="329.492,92.414 327.021,95.295 331.965,89.534 	"/>
	<polygon fill="#4B4A4C" points="324.167,95.234 322.257,98.543 323.213,96.889 	"/>
	<path fill="#4B4A4C" d="M398.831,161.53l-2.977,0.334l-2.976,0.336l-1.556-0.026l-1.556-0.027l-11.659,0.673l-11.659,0.672
		l0.044-0.951l0.044-0.95l50.884-2.588l50.885-2.588l-0.043-1.229l-0.044-1.228l-15.511,0.521l-15.51,0.519l-35.264,2.006
		l-35.264,2.004l0.206-2.632l0.205-2.632l18.913-0.612l18.913-0.613l2.629-0.141l2.593-0.14l0.104-0.021l28.261-0.925l28.261-0.924
		l-0.007-1.297l-0.005-1.298l-28.704,0.932l-28.703,0.933l-2.738,0.122l-2.738,0.122l-18.23,0.629l-18.231,0.629l0.818-10.856
		l0.819-10.855l2.394-28.309l2.395-28.308l1.012-12.296l1.013-12.297l0.233-1.304l0.233-1.305l4.689-1.631l4.689-1.63l8.749-3.911
		l8.748-3.912l-3.061-0.032l-3.06-0.032l0.359-1.771l0.359-1.771l3.116-0.385l3.116-0.384l-13.027-3.548l-13.026-3.549l0.234-4.875
		l0.235-4.876l0.036-1.847l0.035-1.847l-1.69,0.041l-1.69,0.042l-3.761-0.194l-3.761-0.193l-3.167-0.022l-3.167-0.022l-7.209,0.272
		l-7.208,0.272l-2.781,0.192l-2.782,0.192l-0.862,3.956l-0.862,3.957l3.101-0.007l3.101-0.008l-0.387,1.528l-0.385,1.528
		l-14.437,4.261l-14.438,4.26l-2.436,1.319l-2.436,1.319l2.46,0.034l2.459,0.034l0.362,1.551l0.361,1.551l-2.408,0.253l-2.408,0.252
		l1.225,0.619l1.224,0.619l11.069,4.586l11.069,4.586l-4.373,13.252l-4.373,13.252l-30.378,88.298l11.231-1.401l21.638-2.702
		l12.171-1.12l12.171-1.119l-0.208,2.606l-0.207,2.607l-31.534,3.629l-27.198,3.13l-2.862,8.319l-1.469,4.332l-1.469,4.331
		l1.295,0.408l1.295,0.409l1.532-4.578l1.532-4.578l1.544-0.627l1.544-0.627l-1.617,4.599l-1.617,4.599l1.376,0.26l1.376,0.26
		l1.736-5.109l1.735-5.108l2.142-0.284l2.141-0.284l-1.538,5l-1.538,4.999l1.216,0.371l1.217,0.371l1.864-5.658l1.864-5.659
		l3.282-0.497l3.281-0.496l19.228-2.181l19.228-2.18l-0.932,10.118l-0.931,10.118l1.438,0.142l1.438,0.141l0.551-6.094l0.552-6.094
		l-0.226,6.185l-0.225,6.184l1.316,0.039l1.317,0.04l5.802-70.436l5.804-70.435l1.774-0.392l1.775-0.392l-5.832,69.815
		l-5.833,69.816l1.315,0.028l1.314,0.027l0.914-9.939l0.913-9.938l28.201-1.877l28.201-1.877l8.502-0.408l8.501-0.408l14.188-0.373
		l14.188-0.373v-1.313v-1.313l-34.56,1.664L398.831,161.53z M394.009,32.622l0.658-1.907l-0.164,1.847l-0.164,1.847l-0.494,0.061
		l-0.494,0.061L394.009,32.622z M391.108,31.235l-0.426,1.742l-0.425,1.743l-1.192,0.018l-1.192,0.017l0.261-1.719l0.262-1.719
		l1.355-0.041L391.108,31.235z M342.926,15.441l0.235-1.424l0.235-1.423l8.74-0.357l8.741-0.357l4.747,0.075l4.747,0.075
		l2.704-0.118l2.705-0.119l-0.265,5.335l-0.266,5.335l-1.949-0.313l-1.949-0.313l0.22-3.507l0.219-3.508l-14.433,0.31
		L342.926,15.441z M368.913,17.429l-0.17,1.924l-0.17,1.924l-6.63-0.559l-6.629-0.56l-3.691,0.306l-3.691,0.305l0.277-1.331
		l0.276-1.331l10.214-0.339L368.913,17.429z M320.778,35.593l-0.94-0.036l-0.438-1.581l-0.437-1.581l1.002-0.015l1.003-0.016
		l0.375,1.632l0.376,1.633L320.778,35.593z M326.184,28.46l3.203-1.201l13.178-2.247l13.177-2.248l10.858,1.418l10.858,1.417
		l6.397,1.5l6.398,1.501l-14.886,0.487l-14.886,0.487l-12.851,0.104l-12.852,0.104l-5.899-0.06l-5.899-0.061L326.184,28.46z
		 M385.612,31.514l-0.258,1.646l-0.257,1.645l-1.376-0.009l-1.376-0.01l0.315-1.546l0.317-1.545l1.316-0.091L385.612,31.514z
		 M380.206,31.766l-0.292,1.568l-0.293,1.567l-1.571,0.089l-1.572,0.089l0.101-1.617l0.102-1.617l1.763-0.04L380.206,31.766z
		 M373.859,31.988l-0.064,1.563l-0.065,1.564l-1.625,0.047l-1.625,0.048l-0.006-1.606l-0.007-1.605l1.697-0.006L373.859,31.988z
		 M367.738,35.222l-1.322-0.008l-1.323-0.007l0.046-1.526l0.046-1.527l1.275-0.032l1.274-0.031l0.003,1.565L367.738,35.222z
		 M362.389,32.127l-0.031,1.66l-0.032,1.661h-1.06h-1.06l-0.017-1.649l-0.015-1.649l1.106-0.011L362.389,32.127z M357.47,35.481
		l-1.168,0.014l-1.169,0.013l-0.018-1.66l-0.018-1.66l1.159,0.024l1.161,0.024l0.025,1.623L357.47,35.481z M352.412,35.564
		l-0.999,0.006l-0.997,0.006l-0.153-1.61l-0.152-1.609l1.109,0.01l1.109,0.01l0.041,1.594L352.412,35.564z M347.655,35.832
		l-1.327-0.102l-1.326-0.102l-0.291-1.635l-0.29-1.634h1.512h1.514l0.104,1.735L347.655,35.832z M342.25,35.899l-0.795-0.019
		l-0.795-0.019l-0.761-1.77l-0.762-1.77l1.229,0.129l1.23,0.131l0.325,1.658L342.25,35.899z M337.636,35.971l-1.196-0.009
		l-1.196-0.01l-0.598-1.788l-0.597-1.788l1.113,0.007l1.113,0.008l0.68,1.79L337.636,35.971z M332.277,36.122l-1.269-0.006
		l-1.271-0.006l-0.47-1.863l-0.471-1.864h1.226h1.226l0.515,1.869L332.277,36.122z M324.937,32.356l1.085,0.03l0.394,1.781
		l0.394,1.78l-1.103-0.017l-1.104-0.018l-0.376-1.793l-0.376-1.794L324.937,32.356z M335.794,58.069l3.569-11.007l0.627,0.114
		l0.626,0.115l-3.839,10.315l-3.84,10.316l-0.355,0.576l-0.355,0.575L335.794,58.069z M346.675,57.258l6.69-0.026l4.487-0.416
		l4.489-0.416l-0.387,5.585l-0.385,5.585l-12.732-0.163l-12.732-0.163l1.939-4.979l1.939-4.979L346.675,57.258z M341.104,54.687
		l1.091-3.46l1.092-3.46l1.245-0.083l1.246-0.083l-1.19,3.549l-1.19,3.548l-1.146-0.006L341.104,54.687z M346.303,54.724
		l1.084-3.418l1.083-3.419l7.349-0.156l7.35-0.156l-0.257,2.999l-0.258,2.999l-8.176,0.575L346.303,54.724z M361.424,71.15
		l-10.661-0.294l-10.66-0.294l0.445-0.284l0.445-0.284l10.12,0.085l10.121,0.084l0.095,0.493L361.424,71.15z M329.741,76.021
		l0.67-2.052l0.772-1.899l0.773-1.899l-0.599,2.148l-0.6,2.147l-0.844,1.804l-0.845,1.804L329.741,76.021z M302.739,157.631
		l-0.901,0.232l2.829-7.818l2.829-7.818l7.381-21.841l7.38-21.843l2.842-8.73l2.842-8.73l0.587-0.913l0.587-0.913l-2.474,7.989
		l-2.474,7.989l-4.46,14.009l-4.461,14.01l-5.802,17.073l-5.804,17.073L302.739,157.631z M308.7,156.882l-2.051,0.262l10.186-30.924
		l10.186-30.925l2.205-7.137l2.206-7.137l1.858-5.493l1.86-5.493l3.361,0.095l-3.273,9.702l-3.273,9.702l-10.607,33.543
		l-10.606,33.543L308.7,156.882z M358.104,113.121l-3.077,39.313l-5.993,0.432l-5.992,0.431l-14.599,1.485l-14.6,1.485
		l10.829-34.417L335.5,87.433l1.04-2.929l1.04-2.929l1.37-4.179l1.37-4.18l3.014,0.104l3.013,0.104l7.418,0.192l7.418,0.192
		L358.104,113.121z M365.376,66.158l-1.741,18.76l-2.29,26.84l-2.289,26.84l0.221-5.075l0.222-5.075l3.247-40.516l3.245-40.516
		l0.564-0.009l0.563-0.01L365.376,66.158z M368.782,44.566l-12.26,0.268l-12.26,0.267l-5.878-1.555l-5.878-1.555l-4.216-1.745
		l-4.215-1.745l11.286-0.043l11.284-0.044l21.987-0.528l21.988-0.529l-5.528,2.202l-5.528,2.203l-5.392,1.402L368.782,44.566z"/>
</g>
</svg>
